# xmcd
#
# Track frame offsets:
#	150
#	37186
#	38963
#	67440
#	98341
#	111420
#	150383
#	171561
#	198008
#	216488
#	259661
#	273570
#
# Disc length: 4039 seconds
#
# Revision: 1
# Processed by: cddbd v1.5.2PL0 Copyright (c) Steve Scherf et al.
# Submitted via: audiograbber 1.83.01
#
DISCID=b60fc50c
DTITLE=Grateful Dead - 71-04-29 Fillmore East, New York NY
DYEAR=1900
DGENRE=
TTITLE0=Truckin'
TTITLE1=Bertha
TTITLE2=It Hurts Me Too
TTITLE3=Loser
TTITLE4=Dark Hollow
TTITLE5=Hard To Handle
TTITLE6=Ripple
TTITLE7=Me and Bobby McGee
TTITLE8=Casey Jones
TTITLE9=Morning Dew
TTITLE10=New Minglewood Blues
TTITLE11=Sugar Magnolia
EXTD=
EXTT0=
EXTT1=
EXTT2=
EXTT3=
EXTT4=
EXTT5=
EXTT6=
EXTT7=
EXTT8=
EXTT9=
EXTT10=
EXTT11=
PLAYORDER=
